<?xml version="1.0" encoding="utf-8"?>
<!-- Generator: Adobe Illustrator 17.0.0, SVG Export Plug-In . SVG Version: 6.00 Build 0)  -->
<!DOCTYPE svg PUBLIC "-//W3C//DTD SVG 1.1//EN" "http://www.w3.org/Graphics/SVG/1.1/DTD/svg11.dtd">
<svg version="1.1" id="图层_1" xmlns="http://www.w3.org/2000/svg" xmlns:xlink="http://www.w3.org/1999/xlink" x="0px" y="0px"
	 width="36px" height="36px" viewBox="0 0 36 36" style="enable-background:new 0 0 36 36;" xml:space="preserve">
<style type="text/css">
	.st0{opacity:0.6;}
	.st1{fill:#FFFFFF;}
</style>
<g class="st0">
	<path class="st1" d="M21.2,17.2c1.3-1.6,2.1-3.5,2.1-5.7c0-5-4-9-9-9s-9,4-9,9c0,2.2,0.8,4.2,2,5.7C3.4,19.6,1,24,1,28.5
		c0,2.7,2.3,4.9,5,4.9c0.7,0,1.3-0.6,1.3-1.3S6.7,30.9,6,30.9c-1.3,0-2.4-1-2.4-2.4c0-4,2.3-7.7,5.8-9.5c1.4,0.9,3.1,1.5,4.9,1.5
		s3.5-0.5,4.9-1.4c3.1,1.6,5.2,4.6,5.7,8c0.1,0.5,0.1,1,0.1,1.4c0,0.6-0.2,1.2-0.7,1.7s-1.1,0.7-1.7,0.7c-0.7,0-1.3,0.6-1.3,1.3
		s0.6,1.3,1.3,1.3c1.4,0,2.6-0.5,3.6-1.5c0.9-0.9,1.5-2.2,1.5-3.5c0-0.6,0-1.2-0.1-1.8C26.9,22.8,24.6,19.4,21.2,17.2z M7.9,11.5
		c0-3.5,2.9-6.4,6.4-6.4s6.4,2.9,6.4,6.4s-2.9,6.4-6.4,6.4S7.9,15,7.9,11.5z"/>
	<path class="st1" d="M34.9,26.9c-0.5-3.9-2.9-7.4-6.2-9.4c1.3-1.6,2.1-3.6,2.1-5.7c0-4-2.6-7.4-6.4-8.6C23.7,2.9,23,3.4,22.8,4
		c-0.2,0.7,0.2,1.4,0.9,1.6c2.7,0.8,4.5,3.3,4.5,6.1c0,1.9-0.8,3.7-2.3,4.9c0,0,0,0.1-0.1,0.1c-0.2,0.1-0.4,0.3-0.5,0.5
		C25,18,25.3,18.6,26,19c3.4,1.5,5.8,4.7,6.3,8.3c0.1,0.5,0.1,1,0.1,1.4c0,0.8-0.1,1.3-0.6,2.2c-0.3,0.6-0.1,1.4,0.6,1.7
		c0.2,0.1,0.4,0.1,0.6,0.1c0.5,0,0.9-0.3,1.2-0.7c0.6-1.1,0.9-2,0.8-3.4C35,28.1,34.9,27.5,34.9,26.9z"/>
</g>
</svg>
