<?xml version="1.0" encoding="utf-8"?>
<!-- Generator: Adobe Illustrator 17.0.0, SVG Export Plug-In . SVG Version: 6.00 Build 0)  -->
<!DOCTYPE svg PUBLIC "-//W3C//DTD SVG 1.1//EN" "http://www.w3.org/Graphics/SVG/1.1/DTD/svg11.dtd">
<svg version="1.1" id="图层_1" xmlns="http://www.w3.org/2000/svg" xmlns:xlink="http://www.w3.org/1999/xlink" x="0px" y="0px"
	 width="36px" height="36px" viewBox="-402 280.3 36 36" style="enable-background:new -402 280.3 36 36;" xml:space="preserve">
<style type="text/css">
	.st0{opacity:0.6;}
	.st1{fill:#FFFFFF;}
</style>
<g class="st0">
	<g>
		<path class="st1" d="M-384.6,314.6c-5.5,0-10.7-2.8-13.7-7.5c-0.4-0.6-0.2-1.4,0.4-1.8c0.6-0.4,1.4-0.2,1.8,0.4
			c2.5,3.9,6.8,6.3,11.5,6.3c7.6,0,13.7-6.2,13.7-13.7s-6.2-13.7-13.7-13.7c-4.7,0-9,2.3-11.5,6.3c-0.4,0.6-1.2,0.8-1.8,0.4
			c-0.6-0.4-0.8-1.2-0.4-1.8c3-4.7,8.1-7.5,13.7-7.5c9,0,16.3,7.3,16.3,16.3S-375.6,314.6-384.6,314.6z"/>
	</g>
	<g>
		<path class="st1" d="M-398.4,312.6C-398.4,312.6-398.4,312.6-398.4,312.6c-0.6,0-1.1-0.5-1.1-1.1l0.2-5.4c0-0.4,0.2-0.8,0.5-1.1
			c0.3-0.3,0.7-0.4,1.1-0.4l5.4,0.2c0.6,0,1.1,0.5,1.1,1.1c0,0.6-0.5,1.1-1.1,1.1l-4.8-0.2l-0.2,4.8
			C-397.3,312.1-397.8,312.6-398.4,312.6z"/>
	</g>
</g>
</svg>
