<?xml version="1.0" encoding="utf-8"?>
<!-- Generator: Adobe Illustrator 17.0.0, SVG Export Plug-In . SVG Version: 6.00 Build 0)  -->
<!DOCTYPE svg PUBLIC "-//W3C//DTD SVG 1.1//EN" "http://www.w3.org/Graphics/SVG/1.1/DTD/svg11.dtd">
<svg version="1.1" id="图层_1" xmlns="http://www.w3.org/2000/svg" xmlns:xlink="http://www.w3.org/1999/xlink" x="0px" y="0px"
	 width="36px" height="36px" viewBox="-402 280.3 36 36" style="enable-background:new -402 280.3 36 36;" xml:space="preserve">
<style type="text/css">
	.st0{opacity:0.6;}
	.st1{fill:#FFFFFF;}
</style>
<g class="st0">
	<g>
		<path class="st1" d="M-384,295.4c-0.8,0-1.5-0.7-1.5-1.5v-10.4c0-0.8,0.7-1.5,1.5-1.5s1.5,0.7,1.5,1.5v10.4
			C-382.5,294.8-383.2,295.4-384,295.4z"/>
	</g>
	<g>
		<path class="st1" d="M-384,314.6c-9,0-16.3-7.3-16.3-16.3c0-5.5,2.8-10.7,7.5-13.7c0.6-0.4,1.4-0.2,1.8,0.4
			c0.4,0.6,0.2,1.4-0.4,1.8c-3.9,2.5-6.3,6.8-6.3,11.5c0,7.6,6.2,13.7,13.7,13.7c7.6,0,13.7-6.2,13.7-13.7c0-4.7-2.3-9-6.3-11.5
			c-0.6-0.4-0.8-1.2-0.4-1.8c0.4-0.6,1.2-0.8,1.8-0.4c4.7,3,7.5,8.1,7.5,13.7C-367.7,307.3-375,314.6-384,314.6z"/>
	</g>
</g>
</svg>
