<?xml version="1.0" encoding="utf-8"?>
<!-- Generator: Adobe Illustrator 17.0.0, SVG Export Plug-In . SVG Version: 6.00 Build 0)  -->
<!DOCTYPE svg PUBLIC "-//W3C//DTD SVG 1.1//EN" "http://www.w3.org/Graphics/SVG/1.1/DTD/svg11.dtd">
<svg version="1.1" id="图层_1" xmlns="http://www.w3.org/2000/svg" xmlns:xlink="http://www.w3.org/1999/xlink" x="0px" y="0px"
	 width="36px" height="36px" viewBox="-402 280.3 36 36" style="enable-background:new -402 280.3 36 36;" xml:space="preserve">
<style type="text/css">
	.st0{opacity:0.6;}
	.st1{fill:#FFFFFF;}
</style>
<g class="st0">
	<g>
		<path class="st1" d="M-384,295.3c-0.8,0-1.5-0.7-1.5-1.5v-10.4c0-0.8,0.7-1.5,1.5-1.5s1.5,0.7,1.5,1.5v10.4
			C-382.5,294.6-383.2,295.3-384,295.3z"/>
	</g>
	<g>
		<path class="st1" d="M-384,314.5c-9,0-16.3-7.3-16.3-16.3c0-5.5,2.8-10.7,7.5-13.7c0.6-0.4,1.4-0.2,1.8,0.4
			c0.4,0.6,0.2,1.4-0.4,1.8c-3.9,2.5-6.3,6.8-6.3,11.5c0,7.6,6.2,13.7,13.7,13.7s13.7-6.2,13.7-13.7c0-4.7-2.3-9-6.3-11.5
			c-0.6-0.4-0.8-1.2-0.4-1.8c0.4-0.6,1.2-0.8,1.8-0.4c4.7,3,7.5,8.1,7.5,13.7C-367.7,307.1-375,314.5-384,314.5z"/>
	</g>
	<g>
		<path class="st1" d="M-381,301.5h-5.9c-0.8,0-1.5-0.7-1.5-1.5c0-0.8,0.7-1.5,1.5-1.5h5.9c0.8,0,1.5,0.7,1.5,1.5
			C-379.5,300.8-380.2,301.5-381,301.5z"/>
	</g>
	<g>
		<path class="st1" d="M-381,307.2h-5.9c-0.8,0-1.5-0.7-1.5-1.5s0.7-1.5,1.5-1.5h5.9c0.8,0,1.5,0.7,1.5,1.5S-380.2,307.2-381,307.2z
			"/>
	</g>
</g>
</svg>
